<svg id="visual" viewBox="0 0 900 600" width="900" height="600" xmlns="http://www.w3.org/2000/svg" xmlns:xlink="http://www.w3.org/1999/xlink" version="1.1"><path d="M0 85L82 85L82 13L164 13L164 259L245 259L245 109L327 109L327 253L409 253L409 109L491 109L491 67L573 67L573 193L655 193L655 133L736 133L736 439L818 439L818 103L900 103L900 199L900 0L900 0L818 0L818 0L736 0L736 0L655 0L655 0L573 0L573 0L491 0L491 0L409 0L409 0L327 0L327 0L245 0L245 0L164 0L164 0L82 0L82 0L0 0Z" fill="#9900ff"></path><path d="M0 97L82 97L82 115L164 115L164 265L245 265L245 169L327 169L327 355L409 355L409 229L491 229L491 73L573 73L573 241L655 241L655 151L736 151L736 493L818 493L818 187L900 187L900 259L900 197L900 101L818 101L818 437L736 437L736 131L655 131L655 191L573 191L573 65L491 65L491 107L409 107L409 251L327 251L327 107L245 107L245 257L164 257L164 11L82 11L82 83L0 83Z" fill="#8b00e8"></path><path d="M0 235L82 235L82 127L164 127L164 289L245 289L245 235L327 235L327 409L409 409L409 325L491 325L491 175L573 175L573 415L655 415L655 199L736 199L736 511L818 511L818 247L900 247L900 361L900 257L900 185L818 185L818 491L736 491L736 149L655 149L655 239L573 239L573 71L491 71L491 227L409 227L409 353L327 353L327 167L245 167L245 263L164 263L164 113L82 113L82 95L0 95Z" fill="#7e00d1"></path><path d="M0 403L82 403L82 487L164 487L164 463L245 463L245 421L327 421L327 469L409 469L409 493L491 493L491 433L573 433L573 499L655 499L655 583L736 583L736 541L818 541L818 367L900 367L900 469L900 359L900 245L818 245L818 509L736 509L736 197L655 197L655 413L573 413L573 173L491 173L491 323L409 323L409 407L327 407L327 233L245 233L245 287L164 287L164 125L82 125L82 233L0 233Z" fill="#7000bb"></path><path d="M0 577L82 577L82 565L164 565L164 583L245 583L245 487L327 487L327 511L409 511L409 505L491 505L491 517L573 517L573 571L655 571L655 601L736 601L736 559L818 559L818 493L900 493L900 571L900 467L900 365L818 365L818 539L736 539L736 581L655 581L655 497L573 497L573 431L491 431L491 491L409 491L409 467L327 467L327 419L245 419L245 461L164 461L164 485L82 485L82 401L0 401Z" fill="#6300a5"></path><path d="M0 601L82 601L82 601L164 601L164 601L245 601L245 601L327 601L327 601L409 601L409 601L491 601L491 601L573 601L573 601L655 601L655 601L736 601L736 601L818 601L818 601L900 601L900 601L900 569L900 491L818 491L818 557L736 557L736 599L655 599L655 569L573 569L573 515L491 515L491 503L409 503L409 509L327 509L327 485L245 485L245 581L164 581L164 563L82 563L82 575L0 575Z" fill="#560090"></path></svg>