<svg id="visual" viewBox="0 0 900 600" width="900" height="600" xmlns="http://www.w3.org/2000/svg" xmlns:xlink="http://www.w3.org/1999/xlink" version="1.1"><rect x="0" y="0" width="900" height="600" fill="#9900FF"></rect><g transform="translate(393.1094153493115 539.0503809159928)"><path d="M528.9 -869.9C657.8 -841.7 715.6 -644.1 620.7 -470.9C525.9 -297.7 278.5 -148.8 266.5 -6.9C254.5 135 478 270 475.6 274.8C473.2 279.5 244.8 154.1 127.9 117.9C11 81.7 5.5 134.9 -47.5 217.1C-100.5 299.4 -201 410.8 -225.7 393.7C-250.4 376.6 -199.2 231.1 -280.8 144C-362.4 57 -576.7 28.5 -552 14.2C-527.3 0 -263.7 0 -155.3 -40.6C-46.8 -81.1 -93.7 -162.2 -93.7 -264.9C-93.7 -367.6 -46.8 -491.8 76.6 -624.4C200 -757.1 400 -898.2 528.9 -869.9" fill="#140021"></path></g></svg>