<svg width="20" height="24" viewBox="0 0 20 24" fill="none" xmlns="http://www.w3.org/2000/svg">
<path d="M10.152 6.896C9.204 6.896 7.737 5.818 6.192 5.856C4.152 5.883 2.282 7.039 1.231 8.87C-0.885996 12.545 0.685004 17.973 2.75 20.96C3.763 22.414 4.958 24.05 6.542 23.999C8.062 23.934 8.632 23.012 10.477 23.012C12.308 23.012 12.827 23.999 14.437 23.96C16.074 23.934 17.113 22.48 18.113 21.012C19.269 19.324 19.749 17.687 19.775 17.597C19.736 17.584 16.593 16.376 16.555 12.74C16.529 9.7 19.035 8.246 19.152 8.181C17.723 6.091 15.529 5.857 14.762 5.805C12.762 5.649 11.087 6.895 10.152 6.895V6.896ZM13.53 3.83C14.373 2.818 14.93 1.403 14.775 0C13.568 0.052 12.113 0.805 11.243 1.818C10.463 2.714 9.789 4.156 9.97 5.532C11.308 5.636 12.685 4.844 13.529 3.831" fill="#26CCCA"/>
</svg>
