<svg width="18" height="24" viewBox="0 0 18 24" fill="none" xmlns="http://www.w3.org/2000/svg">
<path d="M17.471 8.118V3.898C17.471 3.034 17.003 2.221 16.251 1.778C15.124 1.113 12.684 0 9 0C5.316 0 2.876 1.113 1.75 1.777C1.38049 1.99449 1.0738 2.30421 0.859938 2.67583C0.64608 3.04745 0.53239 3.46824 0.529999 3.897V10.235L13.942 14.117V16.941C13.942 17.323 13.702 17.591 13.294 17.79L9 19.941L4.685 17.779C4.299 17.591 4.059 17.323 4.059 16.941V14.823L0.529999 13.764V16.941C0.529999 18.685 1.53 20.169 3.118 20.942L9 24L14.86 20.953C16.47 20.169 17.47 18.685 17.47 16.942V11.648L4.059 7.765V4.542C5.017 4.08 6.651 3.529 9 3.529C11.349 3.529 12.983 4.079 13.941 4.542V7.059L17.471 8.118V8.118Z" fill="#26CCCA"/>
</svg>
