<svg width="24" height="24" viewBox="0 0 24 24" fill="none" xmlns="http://www.w3.org/2000/svg">
<path d="M20.471 8.118V3.898C20.471 3.034 20.003 2.221 19.251 1.778C18.124 1.113 15.684 0 12 0C8.316 0 5.876 1.113 4.75 1.777C4.38049 1.99449 4.0738 2.30421 3.85994 2.67583C3.64608 3.04745 3.53239 3.46824 3.53 3.897V10.235L16.942 14.117V16.941C16.942 17.323 16.702 17.591 16.294 17.79L12 19.941L7.685 17.779C7.299 17.591 7.059 17.323 7.059 16.941V14.823L3.53 13.764V16.941C3.53 18.685 4.53 20.169 6.118 20.942L12 24L17.86 20.953C19.47 20.169 20.47 18.685 20.47 16.942V11.648L7.059 7.765V4.542C8.017 4.08 9.651 3.529 12 3.529C14.349 3.529 15.983 4.079 16.941 4.542V7.059L20.471 8.118V8.118Z" fill="#FEFEFE"/>
</svg>
