<svg id="visual" viewBox="0 0 3840 2160" width="3840" height="2160" xmlns="http://www.w3.org/2000/svg" xmlns:xlink="http://www.w3.org/1999/xlink" version="1.1"><rect x="0" y="0" width="3840" height="2160" fill="#140021"></rect><g fill="none" stroke="#9900FF" stroke-width="4"><path d="M137.1 79.1L137.1 353.3L-137.1 353.3L-137.1 79.1L-374.5 -57.9L-237.4 -295.4L0 -158.3L237.4 -295.4L374.5 -57.9Z" transform="translate(2031 1246)"></path><path d="M25.9 15L25.9 66.8L-25.9 66.8L-25.9 15L-70.8 -10.9L-44.9 -55.8L0 -29.9L44.9 -55.8L70.8 -10.9Z" transform="translate(52 149)"></path><path d="M121.2 70L121.2 312.3L-121.2 312.3L-121.2 70L-331 -51.2L-209.9 -261.1L0 -139.9L209.9 -261.1L331 -51.2Z" transform="translate(3129 606)"></path><path d="M87.2 50.3L87.2 224.7L-87.2 224.7L-87.2 50.3L-238.1 -36.8L-151 -187.8L0 -100.6L151 -187.8L238.1 -36.8Z" transform="translate(3454 1788)"></path><path d="M95.3 55L95.3 245.5L-95.3 245.5L-95.3 55L-260.3 -40.3L-165 -205.3L0 -110L165 -205.3L260.3 -40.3Z" transform="translate(69 1358)"></path><path d="M75.3 43.5L75.3 194L-75.3 194L-75.3 43.5L-205.7 -31.8L-130.4 -162.2L0 -86.9L130.4 -162.2L205.7 -31.8Z" transform="translate(1618 237)"></path><path d="M77.2 44.6L77.2 198.9L-77.2 198.9L-77.2 44.6L-210.9 -32.6L-133.7 -166.3L0 -89.1L133.7 -166.3L210.9 -32.6Z" transform="translate(1172 1967)"></path></g></svg>