<svg id="visual" viewBox="0 0 3840 2160" width="3840" height="2160" xmlns="http://www.w3.org/2000/svg" xmlns:xlink="http://www.w3.org/1999/xlink" version="1.1"><rect x="0" y="0" width="3840" height="2160" fill="#140021"></rect><path d="M2741 2160L1110 2160L1110 2006L1831 2006L1831 1851L2017 1851L2017 1697L2612 1697L2612 1543L2371 1543L2371 1389L1781 1389L1781 1234L977 1234L977 1080L2316 1080L2316 926L1407 926L1407 771L2235 771L2235 617L1442 617L1442 463L2823 463L2823 309L2670 309L2670 154L1476 154L1476 0L3840 0L3840 154L3840 154L3840 309L3840 309L3840 463L3840 463L3840 617L3840 617L3840 771L3840 771L3840 926L3840 926L3840 1080L3840 1080L3840 1234L3840 1234L3840 1389L3840 1389L3840 1543L3840 1543L3840 1697L3840 1697L3840 1851L3840 1851L3840 2006L3840 2006L3840 2160L3840 2160Z" fill="#560090"></path><path d="M1769 2160L2139 2160L2139 2006L1561 2006L1561 1851L2945 1851L2945 1697L1395 1697L1395 1543L2136 1543L2136 1389L2924 1389L2924 1234L1719 1234L1719 1080L2031 1080L2031 926L1914 926L1914 771L2707 771L2707 617L1462 617L1462 463L1635 463L1635 309L1915 309L1915 154L2515 154L2515 0L3840 0L3840 154L3840 154L3840 309L3840 309L3840 463L3840 463L3840 617L3840 617L3840 771L3840 771L3840 926L3840 926L3840 1080L3840 1080L3840 1234L3840 1234L3840 1389L3840 1389L3840 1543L3840 1543L3840 1697L3840 1697L3840 1851L3840 1851L3840 2006L3840 2006L3840 2160L3840 2160Z" fill="#6300a5"></path><path d="M2974 2160L3085 2160L3085 2006L2874 2006L2874 1851L1919 1851L1919 1697L2326 1697L2326 1543L3125 1543L3125 1389L2841 1389L2841 1234L1958 1234L1958 1080L2452 1080L2452 926L2040 926L2040 771L2057 771L2057 617L2348 617L2348 463L2060 463L2060 309L2857 309L2857 154L2257 154L2257 0L3840 0L3840 154L3840 154L3840 309L3840 309L3840 463L3840 463L3840 617L3840 617L3840 771L3840 771L3840 926L3840 926L3840 1080L3840 1080L3840 1234L3840 1234L3840 1389L3840 1389L3840 1543L3840 1543L3840 1697L3840 1697L3840 1851L3840 1851L3840 2006L3840 2006L3840 2160L3840 2160Z" fill="#7000bb"></path><path d="M2766 2160L2881 2160L2881 2006L2348 2006L2348 1851L2409 1851L2409 1697L2900 1697L2900 1543L2587 1543L2587 1389L2235 1389L2235 1234L2943 1234L2943 1080L2686 1080L2686 926L2615 926L2615 771L2555 771L2555 617L3089 617L3089 463L2541 463L2541 309L3078 309L3078 154L2676 154L2676 0L3840 0L3840 154L3840 154L3840 309L3840 309L3840 463L3840 463L3840 617L3840 617L3840 771L3840 771L3840 926L3840 926L3840 1080L3840 1080L3840 1234L3840 1234L3840 1389L3840 1389L3840 1543L3840 1543L3840 1697L3840 1697L3840 1851L3840 1851L3840 2006L3840 2006L3840 2160L3840 2160Z" fill="#7e00d1"></path><path d="M3271 2160L2643 2160L2643 2006L3165 2006L3165 1851L2691 1851L2691 1697L3280 1697L3280 1543L3113 1543L3113 1389L2941 1389L2941 1234L2984 1234L2984 1080L2659 1080L2659 926L2997 926L2997 771L2918 771L2918 617L3336 617L3336 463L3144 463L3144 309L2958 309L2958 154L3016 154L3016 0L3840 0L3840 154L3840 154L3840 309L3840 309L3840 463L3840 463L3840 617L3840 617L3840 771L3840 771L3840 926L3840 926L3840 1080L3840 1080L3840 1234L3840 1234L3840 1389L3840 1389L3840 1543L3840 1543L3840 1697L3840 1697L3840 1851L3840 1851L3840 2006L3840 2006L3840 2160L3840 2160Z" fill="#8b00e8"></path><path d="M3112 2160L3152 2160L3152 2006L3072 2006L3072 1851L3055 1851L3055 1697L3541 1697L3541 1543L3560 1543L3560 1389L3430 1389L3430 1234L3293 1234L3293 1080L3453 1080L3453 926L3168 926L3168 771L3195 771L3195 617L3194 617L3194 463L3517 463L3517 309L3061 309L3061 154L3101 154L3101 0L3840 0L3840 154L3840 154L3840 309L3840 309L3840 463L3840 463L3840 617L3840 617L3840 771L3840 771L3840 926L3840 926L3840 1080L3840 1080L3840 1234L3840 1234L3840 1389L3840 1389L3840 1543L3840 1543L3840 1697L3840 1697L3840 1851L3840 1851L3840 2006L3840 2006L3840 2160L3840 2160Z" fill="#9900ff"></path></svg>