<svg id="visual" viewBox="0 0 900 600" width="900" height="600" xmlns="http://www.w3.org/2000/svg" xmlns:xlink="http://www.w3.org/1999/xlink" version="1.1"><rect x="0" y="0" width="900" height="600" fill="#140021"></rect><defs><linearGradient id="grad1_0" x1="33.3%" y1="100%" x2="100%" y2="0%"><stop offset="20%" stop-color="#140021" stop-opacity="1"></stop><stop offset="80%" stop-color="#140021" stop-opacity="1"></stop></linearGradient></defs><defs><linearGradient id="grad2_0" x1="0%" y1="100%" x2="66.7%" y2="0%"><stop offset="20%" stop-color="#140021" stop-opacity="1"></stop><stop offset="80%" stop-color="#140021" stop-opacity="1"></stop></linearGradient></defs><g transform="translate(900, 600)"><path d="M-378.6 0C-325.6 -41 -272.6 -81.9 -247.7 -143C-222.8 -204.1 -225.9 -285.2 -189.3 -327.9C-152.7 -370.5 -76.3 -374.5 0 -378.6L0 0Z" fill="#9900FF"></path></g><g transform="translate(0, 0)"><path d="M378.6 0C329.8 43.4 280.9 86.7 255.5 147.5C230 208.3 228 286.4 189.3 327.9C150.6 369.3 75.3 373.9 0 378.6L0 0Z" fill="#9900FF"></path></g></svg>